# xmcd
#
# Track frame offsets:
#	150
#	19424
#	36223
#	52114
#	67529
#	83774
#	101718
#	117464
#	131243
#	148025
#	170340
#	185169
#	204048
#	222351
#	236015
#	252704
#	272439
#	284687
#	303257
#	319810
#	336409
#
# Disc length: 4653 seconds
#
# Revision: 2
# Processed by: cddbd v1.5.2PL0 Copyright (c) Steve Scherf et al.
# Submitted via: audiograbber 1.83.01
#
DISCID=48122b15
DTITLE=Various Artist - Promo Only Country November 2012
DYEAR=2012
DGENRE=Country
TTITLE0=Clay Walker - Jesse James
TTITLE1=Matt Stillwell - The Way You Make Me Feel
TTITLE2=JT Hodges - Sleepy Little Town
TTITLE3=Kacey Musgraves - Merry Go 'Round
TTITLE4=John Colbert - Dreams And Wishes
TTITLE5=Luke Pilgrim - Back Road Lullaby
TTITLE6=Lisa Matassa - Somebody's Baby
TTITLE7=D. Vincent William - Down By The River
TTITLE8=Gary Allan - Every Storm (Runs Out Of Rain)
TTITLE9=Kenny Chesney - El Cerrito Place
TTITLE10=Sarah Darling - Home To Me
TTITLE11=Thomas Rhett - Beer With Jesus
TTITLE12=Farm - Be Grateful
TTITLE13=Wheeler Sisters - This Is Gonna Get Ugly
TTITLE14=Kix Brooks - Bring It On Home
TTITLE15=Gloriana - Can't Shake You
TTITLE16=St. Ice - Unneccessary Roughness
TTITLE17=Cledus T. Judd - The House That Broke Me
TTITLE18=Phoenix Sisters - 100 Proof Moonshine
TTITLE19=Chelsea Bain - What If I
TTITLE20=Tony Young - Low Country Boil
EXTD=
EXTT0=
EXTT1=
EXTT2=
EXTT3=
EXTT4=
EXTT5=
EXTT6=
EXTT7=
EXTT8=
EXTT9=
EXTT10=
EXTT11=
EXTT12=
EXTT13=
EXTT14=
EXTT15=
EXTT16=
EXTT17=
EXTT18=
EXTT19=
EXTT20=
PLAYORDER=
